<svg xmlns="http://www.w3.org/2000/svg" viewBox="0 0 320 250"><defs><style>.cls-1{fill:#f48133;}.cls-2{fill:#18315a;}</style></defs><title>commpress</title><g id="Layer_1" data-name="Layer 1"><path class="cls-1" d="M128.68,88.07a22.27,22.27,0,1,1,0-22.3L109.41,76.9Zm3-11.21v0Z"/><path class="cls-1" d="M182.83,92.48a6.67,6.67,0,0,1-6.68,6.68H145a6.67,6.67,0,0,1-6.68-6.68V61.33A6.67,6.67,0,0,1,145,54.65h31.15a6.67,6.67,0,0,1,6.68,6.68Zm-10-15.58L151.68,64.67V89.14Z"/><path class="cls-2" d="M234,99.15H189.5l8.9-44.5,13.35,20,13.35-20Z"/><path class="cls-2" d="M131.66,145.88a6.68,6.68,0,0,1-13.35,0V121.4h-2.22v24.48a6.68,6.68,0,0,1-13.35,0V121.4h-2.22v24.48a6.68,6.68,0,0,1-13.35,0V114.72A6.67,6.67,0,0,1,93.83,108H125a6.67,6.67,0,0,1,6.68,6.68Z"/><path class="cls-1" d="M168.37,138.09h-7.79v14.46H138.33V108h30a15,15,0,0,1,0,30Z"/><path class="cls-1" d="M189.5,152.55V108h27.81v0a17.81,17.81,0,0,1,6.23,34L234,152.55Z"/><path class="cls-1" d="M131.66,183.7a6.67,6.67,0,0,1-6.68,6.68H100.51v2.22H125a6.68,6.68,0,0,1,0,13.35H93.83a6.67,6.67,0,0,1-6.68-6.68V168.12a6.67,6.67,0,0,1,6.68-6.68H125a6.67,6.67,0,0,1,6.68,6.68ZM100.51,177h17.8V174.8h-17.8Z"/><path class="cls-2" d="M182.83,199.27a6.67,6.67,0,0,1-6.68,6.68H145a6.68,6.68,0,0,1,0-13.35h24.48v-2.22H145a6.67,6.67,0,0,1-6.68-6.68V168.12a6.67,6.67,0,0,1,6.68-6.68h31.15a6.68,6.68,0,0,1,0,13.35H151.68V177h24.48a6.67,6.67,0,0,1,6.68,6.68Z"/><path class="cls-1" d="M234,194.82a11.13,11.13,0,0,1-11.12,11.13H189.5V183.7h11.13a11.13,11.13,0,0,1,0-22.25H234V183.7H222.88A11.13,11.13,0,0,1,234,194.82Z"/></g></svg>