<svg xmlns="http://www.w3.org/2000/svg" viewBox="0 0 320 250"><defs><style>.cls-1{fill:#8cbf87;}.cls-2{fill:#2e8a47;}.cls-3{fill:#82bb7f;}.cls-4{fill:#70b46e;}.cls-5{fill:#50a955;}.cls-6{fill:#2e9c49;}.cls-7{fill:#2da34a;}</style></defs><title>freistilbox</title><g id="Layer_8" data-name="Layer 8"><path class="cls-1" d="M35.37,160H27.11a5.89,5.89,0,0,1-3.34-.9,5.52,5.52,0,0,1-2.14-3,7.83,7.83,0,0,1-.29-1.33c0-.17,0-.31,0-.4s0-.08,0-.11v0h0v-9a5.89,5.89,0,0,1,.9-3.34,5.52,5.52,0,0,1,3-2.14,7.83,7.83,0,0,1,1.33-.29l.4,0h5.3c.07,1.3.81,9,8.92,9.29v5.54a5.89,5.89,0,0,1-.9,3.34,5.52,5.52,0,0,1-3,2.14,7.87,7.87,0,0,1-1.33.29l-.4,0h-.14"/><path class="cls-2" d="M27.11,138.87v-.44a7.07,7.07,0,0,0-1.08.11,7.49,7.49,0,0,0-3.5,1.55,5.65,5.65,0,0,0-1.51,2,7.24,7.24,0,0,0-.61,3.06v9a7,7,0,0,0,.11,1.08,7.49,7.49,0,0,0,1.55,3.5,5.65,5.65,0,0,0,2,1.51,7.24,7.24,0,0,0,3.06.61h8.26a7,7,0,0,0,1.08-.11,7.49,7.49,0,0,0,3.5-1.55,5.65,5.65,0,0,0,1.51-2,7.24,7.24,0,0,0,.61-3.06v-9A7.07,7.07,0,0,0,42,144a7.5,7.5,0,0,0-1.55-3.5,5.65,5.65,0,0,0-2-1.51,7.24,7.24,0,0,0-3.06-.61H27.11v.89h8.26a5.89,5.89,0,0,1,3.34.9,5.52,5.52,0,0,1,2.14,3,7.83,7.83,0,0,1,.29,1.33c0,.17,0,.31,0,.4s0,.08,0,.11v0h0v9a5.89,5.89,0,0,1-.9,3.34,5.52,5.52,0,0,1-3,2.14,7.87,7.87,0,0,1-1.33.29l-.4,0h-.14v0h0v0H27.11a5.89,5.89,0,0,1-3.34-.9,5.52,5.52,0,0,1-2.14-3,7.83,7.83,0,0,1-.29-1.33c0-.17,0-.31,0-.4s0-.08,0-.11v0h0v-9a5.89,5.89,0,0,1,.9-3.34,5.52,5.52,0,0,1,3-2.14,7.83,7.83,0,0,1,1.33-.29l.4,0h.14v0h0v-.44"/><path class="cls-1" d="M64,103.51H44.11V98a5.89,5.89,0,0,1,.9-3.34,5.52,5.52,0,0,1,3-2.14,7.92,7.92,0,0,1,1.33-.29l.4,0h8.4a5.89,5.89,0,0,1,3.34.9,5.52,5.52,0,0,1,2.14,3A7.87,7.87,0,0,1,64,97.44c0,.17,0,.31,0,.4V98h0v5.52"/><path class="cls-2" d="M49.93,91.73v-.44a7,7,0,0,0-1.08.11,7.49,7.49,0,0,0-3.5,1.55,5.65,5.65,0,0,0-1.51,2A7.24,7.24,0,0,0,43.23,98v9a7.11,7.11,0,0,0,.11,1.08,7.49,7.49,0,0,0,1.55,3.5,5.65,5.65,0,0,0,2,1.51,7.24,7.24,0,0,0,3.06.61h8.26a7.07,7.07,0,0,0,1.08-.11,7.49,7.49,0,0,0,3.5-1.55,5.65,5.65,0,0,0,1.51-2A7.24,7.24,0,0,0,64.9,107V98a7,7,0,0,0-.11-1.08,7.49,7.49,0,0,0-1.55-3.5,5.66,5.66,0,0,0-2-1.51,7.24,7.24,0,0,0-3.06-.61H49.93v.89h8.26a5.89,5.89,0,0,1,3.34.9,5.52,5.52,0,0,1,2.14,3A7.87,7.87,0,0,1,64,97.44c0,.17,0,.31,0,.4V98h0v9a5.89,5.89,0,0,1-.9,3.34,5.52,5.52,0,0,1-3,2.14,7.83,7.83,0,0,1-1.33.29l-.4,0h-.14v0h0v0H49.93a5.89,5.89,0,0,1-3.34-.9,5.52,5.52,0,0,1-2.14-3,7.83,7.83,0,0,1-.29-1.33c0-.17,0-.31,0-.4s0-.08,0-.11v0h0V98a5.89,5.89,0,0,1,.9-3.34,5.52,5.52,0,0,1,3-2.14,7.92,7.92,0,0,1,1.33-.29l.4,0h.14v0h0v-.44"/><path class="cls-3" d="M15.86,113.26H12.39a2.84,2.84,0,0,1-3-3v-3.85a2.84,2.84,0,0,1,3-3h3.47a2.84,2.84,0,0,1,3,3v3.85a2.84,2.84,0,0,1-3,3"/><path class="cls-2" d="M12.39,103.51v-.44a3.71,3.71,0,0,0-2.12.69,3,3,0,0,0-.91,1.06A3.58,3.58,0,0,0,9,106.46v3.85a3.71,3.71,0,0,0,.69,2.12,3,3,0,0,0,1.06.91,3.59,3.59,0,0,0,1.65.37h3.47A3.71,3.71,0,0,0,18,113a3,3,0,0,0,.91-1.06,3.58,3.58,0,0,0,.37-1.65v-3.85a3.71,3.71,0,0,0-.69-2.12,3,3,0,0,0-1.06-.91,3.59,3.59,0,0,0-1.65-.37H12.39V104h3.47a2.69,2.69,0,0,1,1.24.27,2.2,2.2,0,0,1,1,1,2.9,2.9,0,0,1,.28,1.19v3.85a2.7,2.7,0,0,1-.27,1.24,2.2,2.2,0,0,1-1,1,2.9,2.9,0,0,1-1.19.28H12.39a2.7,2.7,0,0,1-1.24-.27,2.2,2.2,0,0,1-1-1,2.9,2.9,0,0,1-.28-1.19v-3.85a2.7,2.7,0,0,1,.27-1.24,2.2,2.2,0,0,1,1-1,2.9,2.9,0,0,1,1.19-.28v-.44Z"/><path class="cls-4" d="M66.37,148.62H42.08v-3.49A7.07,7.07,0,0,0,42,144a7.5,7.5,0,0,0-1.55-3.5,5.65,5.65,0,0,0-2-1.51,7.24,7.24,0,0,0-3.06-.61H32.26V113c0-9.38,9.4-9.49,9.49-9.49h1.48V107a7.11,7.11,0,0,0,.11,1.08,7.49,7.49,0,0,0,1.55,3.5,5.65,5.65,0,0,0,2,1.51,7.24,7.24,0,0,0,3.06.61h8.26a7.07,7.07,0,0,0,1.08-.11,7.49,7.49,0,0,0,3.5-1.55,5.65,5.65,0,0,0,1.51-2A7.24,7.24,0,0,0,64.9,107v-3.49h1.48c9.38,0,9.49,9.4,9.49,9.49v26.12c0,9.38-9.4,9.49-9.49,9.49"/><path class="cls-5" d="M41.19,148.6c-8.12-.34-8.85-8-8.92-9.29h3.1a5.89,5.89,0,0,1,3.34.9,5.52,5.52,0,0,1,2.14,3,7.83,7.83,0,0,1,.29,1.33c0,.17,0,.31,0,.4s0,.08,0,.11v0h0v3.48"/><path class="cls-6" d="M42.08,148.62h-.89v-3.48h0v0s0-.06,0-.11,0-.23,0-.4a7.83,7.83,0,0,0-.29-1.33,5.52,5.52,0,0,0-2.14-3,5.89,5.89,0,0,0-3.34-.9h-3.1c0-.11,0-.18,0-.19v-.7h3.11a7.24,7.24,0,0,1,3.06.61,5.65,5.65,0,0,1,2,1.51A7.5,7.5,0,0,1,42,144a7.07,7.07,0,0,1,.11,1.08v3.49"/><path class="cls-5" d="M58.19,112.82H49.93a5.89,5.89,0,0,1-3.34-.9,5.52,5.52,0,0,1-2.14-3,7.83,7.83,0,0,1-.29-1.33c0-.17,0-.31,0-.4s0-.08,0-.11v0h0v-3.49H64V107a5.89,5.89,0,0,1-.9,3.34,5.52,5.52,0,0,1-3,2.14,7.83,7.83,0,0,1-1.33.29l-.4,0h-.14"/><path class="cls-6" d="M49.93,113.7a7.24,7.24,0,0,1-3.06-.61,5.65,5.65,0,0,1-2-1.51,7.49,7.49,0,0,1-1.55-3.5,7.11,7.11,0,0,1-.11-1.08v-3.49h.89V107h0v0s0,.06,0,.11,0,.23,0,.4a7.83,7.83,0,0,0,.29,1.33,5.52,5.52,0,0,0,2.14,3,5.89,5.89,0,0,0,3.34.9h8.4l.4,0a7.83,7.83,0,0,0,1.33-.29,5.52,5.52,0,0,0,3-2.14A5.89,5.89,0,0,0,64,107v-3.49h.89V107a7.24,7.24,0,0,1-.61,3.06,5.65,5.65,0,0,1-1.51,2,7.49,7.49,0,0,1-3.5,1.55,7.07,7.07,0,0,1-1.08.11H49.93"/><path class="cls-2" d="M41.75,103.51v-.44a10.43,10.43,0,0,0-1.6.17,11.13,11.13,0,0,0-5.2,2.3,8.33,8.33,0,0,0-2.23,2.92,10.74,10.74,0,0,0-.91,4.54v26.12a10.43,10.43,0,0,0,.17,1.6,11.13,11.13,0,0,0,2.3,5.2,8.34,8.34,0,0,0,2.92,2.23,10.75,10.75,0,0,0,4.54.91H66.37a10.5,10.5,0,0,0,1.6-.17,11.13,11.13,0,0,0,5.2-2.3,8.33,8.33,0,0,0,2.23-2.92,10.75,10.75,0,0,0,.91-4.54V113a10.54,10.54,0,0,0-.17-1.6,11.13,11.13,0,0,0-2.3-5.2A8.34,8.34,0,0,0,70.92,104a10.75,10.75,0,0,0-4.55-.91H41.75V104H66.37a9.16,9.16,0,0,1,5.2,1.4,8.59,8.59,0,0,1,3.34,4.74,12.14,12.14,0,0,1,.44,2.06c0,.26.05.48.06.63s0,.13,0,.17v0h0v26.12a9.16,9.16,0,0,1-1.4,5.2,8.59,8.59,0,0,1-4.74,3.34,12.09,12.09,0,0,1-2.06.44l-.63.06H41.75a9.16,9.16,0,0,1-5.2-1.4A8.59,8.59,0,0,1,33.21,142a12.08,12.08,0,0,1-.44-2.06c0-.26-.05-.48-.06-.63s0-.13,0-.17v0h0V113a9.15,9.15,0,0,1,1.4-5.2,8.59,8.59,0,0,1,4.74-3.34A12.13,12.13,0,0,1,40.9,104l.63-.06h.23v-.44Z"/><path class="cls-7" d="M102.44,104.15v-2.48c-.1,0-.4-.05-.76-.05-5,0-9,2.84-9,8.56v3.95H88.62v2.28h4.05v25h2.89v-25h6.38v-2.28H95.55v-3.95c0-4.15,2.84-6,6.48-6Zm17.22,9.57a19.11,19.11,0,0,0-2.33-.1,23.61,23.61,0,0,0-9.42,1.87v25.93h3v-24.2a16.33,16.33,0,0,1,6.08-1.06,12.72,12.72,0,0,1,2,.15l.66-2.58Zm25.88,11.19c0-7.19-4.2-11.29-10.53-11.29-7.14,0-11.54,5.72-11.54,14.13,0,9.27,4.91,14.18,12.71,14.18a18.25,18.25,0,0,0,8.51-1.87l-1-2.33a15.94,15.94,0,0,1-7.39,1.72c-5.77,0-9.52-3.39-9.92-10.08l19.14-2.84c.05-.61.05-1.11.05-1.62Zm-2.89-.2-16.46,2.38c.15-6.68,3.44-11.09,8.81-11.09,4.56,0,7.6,2.79,7.65,8.71ZM156.32,106a2.05,2.05,0,0,0-2.08-2.08,2.08,2.08,0,1,0,0,4.15,2.05,2.05,0,0,0,2.08-2.08Zm-.61,35.44V114.12h-3v27.29Zm24.15-7c0-5-3.7-6.53-7.95-8.15-3.34-1.27-5.82-2.33-5.82-5.62,0-2.53,2.13-4.61,5.82-4.61a11.32,11.32,0,0,1,5.82,1.67l1.16-2.23a14.06,14.06,0,0,0-7.19-1.87c-5.52,0-8.66,3.09-8.66,7,0,4.71,3.49,6.38,7.54,7.9,3.54,1.32,6.18,2.53,6.18,5.82,0,3.09-2.68,5.06-6.68,5.06a14.71,14.71,0,0,1-6.58-1.72L162.34,140a17,17,0,0,0,7.8,1.87c6,0,9.72-3,9.72-7.49Zm17.57,6.94v-2.58a5.28,5.28,0,0,1-1.67.25c-2.43,0-4.51-1.27-4.51-4.3V116.4h6.18v-2.28h-6.18v-7.9l-2.89,1.11v6.79h-4.25v2.28h4.25v18.43c0,4.61,2.89,6.84,6.94,6.84a5.56,5.56,0,0,0,2.13-.3ZM207.36,106a2.05,2.05,0,0,0-2.08-2.08,2.08,2.08,0,1,0,0,4.15,2.05,2.05,0,0,0,2.08-2.08Zm-.61,35.44V114.12h-3v27.29Zm11.49,0V101.67h-3v39.75Zm30.28-14.28c0-8.35-4.76-13.42-11.8-13.42a14,14,0,0,0-5.32,1.11V101.67h-5.52V140a22,22,0,0,0,9.17,1.92c8.15,0,13.47-4.56,13.47-14.84Zm-5.52.41c0,7-3.24,10-7.65,10a11,11,0,0,1-3.95-.71V118.93a10.42,10.42,0,0,1,4.35-.91c4.41,0,7.24,3.54,7.24,9.52Zm34.33.2c0-8.1-4.25-14.18-12-14.18s-12,6.08-12,14.18,4.25,14.23,12,14.23,12-6.13,12-14.23Zm-5.57-.05c0,5.87-2.13,9.77-6.43,9.77s-6.43-3.9-6.43-9.77S261,118,265.33,118s6.43,3.85,6.43,9.72ZM305,141.42l-9.37-14.18,8.61-13.11H298l-5.72,9.52h-.1l-5.72-9.52h-6.23l8.61,13.11-9.37,14.18h6.33L292.22,131h.1l6.38,10.38Z"/><path class="cls-7" d="M95.52,161.34v-5.47c0-1.69-1.08-2.66-3.31-2.66a8.08,8.08,0,0,0-3.06.56v7.57h1.61v-6.6a4.19,4.19,0,0,1,1.46-.24c1.11,0,1.67.58,1.67,1.51v5.32Zm8.33-4.63c0-2.15-1.23-3.5-3.3-3.5-2.23,0-3.59,1.7-3.59,4.14s1.4,4.16,3.92,4.16a6.51,6.51,0,0,0,2.78-.56l-.47-1.21a5,5,0,0,1-2.2.49,2.25,2.25,0,0,1-2.44-2.16l5.3-.74c0-.21,0-.41,0-.61Zm-1.55-.25-3.86.53c0-1.66.84-2.6,2.09-2.6,1.07,0,1.76.68,1.78,2.07Zm9.52,4.88-2.74-4.14,2.51-3.83h-1.82l-1.67,2.78h0l-1.67-2.78h-1.82l2.51,3.83-2.74,4.14h1.85l1.86-3h0l1.86,3Zm4.7-.07v-1.35a1.51,1.51,0,0,1-.55.1.94.94,0,0,1-1.06-1v-4.44h1.61v-1.21h-1.61V151l-1.58.49v1.85h-1.08v1.21h1.08v4.53c0,1.55.78,2.34,2.19,2.34a2.73,2.73,0,0,0,1-.18Zm5.16-4v-1.39h-4.11v1.39Zm8.24,4.08v-7.54a6.13,6.13,0,0,0-2.66-.56c-2.35,0-4,1.28-4,4,0,2.41,1.4,3.8,3.42,3.8a4.18,4.18,0,0,0,1.61-.32v.59a1.75,1.75,0,0,1-2,2,5,5,0,0,1-2.22-.5l-.47,1.27a6.64,6.64,0,0,0,2.84.61,3.08,3.08,0,0,0,3.4-3.36Zm-1.6-1.79a3.13,3.13,0,0,1-1.3.28c-1.26,0-2.1-.87-2.1-2.62,0-1.92,1-2.72,2.22-2.72a3.34,3.34,0,0,1,1.18.21v4.85Zm9.92-2.81c0-2.15-1.23-3.5-3.3-3.5-2.23,0-3.59,1.7-3.59,4.14s1.4,4.16,3.92,4.16a6.51,6.51,0,0,0,2.78-.56l-.47-1.21a5,5,0,0,1-2.2.49,2.25,2.25,0,0,1-2.44-2.16l5.3-.74c0-.21,0-.41,0-.61Zm-1.55-.25-3.86.53c0-1.66.84-2.6,2.09-2.6,1.07,0,1.76.68,1.78,2.07Zm9.36,4.88v-5.47c0-1.69-1.08-2.66-3.31-2.66a8.08,8.08,0,0,0-3.06.56v7.57h1.61v-6.6a4.2,4.2,0,0,1,1.47-.24c1.11,0,1.67.58,1.67,1.51v5.32Zm8.33-4.63c0-2.15-1.23-3.5-3.3-3.5-2.23,0-3.59,1.7-3.59,4.14s1.4,4.16,3.92,4.16a6.51,6.51,0,0,0,2.78-.56l-.47-1.21a5,5,0,0,1-2.2.49,2.25,2.25,0,0,1-2.44-2.16l5.3-.74c0-.21,0-.41,0-.61Zm-1.55-.25L149,157c0-1.66.84-2.6,2.09-2.6,1.07,0,1.76.68,1.78,2.07Zm7-3.19a5.2,5.2,0,0,0-.9-.06,8.35,8.35,0,0,0-3.09.56v7.57h1.61v-6.61a3.5,3.5,0,0,1,1.26-.21,3.43,3.43,0,0,1,.81.09l.31-1.35Zm6.88,7.68v-5c0-2-1.15-2.71-3.06-2.71a7.44,7.44,0,0,0-2.78.56l.41,1.11a5.82,5.82,0,0,1,2.2-.49c1,0,1.69.36,1.69,1.36v.5c-2.41.13-4.78.53-4.78,2.75,0,1.57,1.15,2.5,3.45,2.5a6.92,6.92,0,0,0,2.87-.56Zm-1.54-.81a4.08,4.08,0,0,1-1.38.21c-1.23,0-1.88-.52-1.88-1.36,0-1.42,1.63-1.55,3.26-1.64v2.8Zm6.91,1.14v-1.35a1.51,1.51,0,0,1-.55.1.94.94,0,0,1-1.06-1v-4.44h1.61v-1.21h-1.61V151l-1.58.49v1.85h-1.08v1.21h1.08v4.53c0,1.55.78,2.34,2.19,2.34a2.73,2.73,0,0,0,1-.18ZM175.17,151a1,1,0,1,0-1,.92.94.94,0,0,0,1-.92ZM175,161.34v-8H173.4v8Zm8.49-4c0-2.37-1.24-4.14-3.5-4.14s-3.5,1.77-3.5,4.14,1.24,4.16,3.5,4.16,3.5-1.79,3.5-4.16Zm-1.63,0c0,1.72-.62,2.86-1.88,2.86s-1.88-1.14-1.88-2.86.62-2.84,1.88-2.84,1.88,1.12,1.88,2.84Zm9.44,4v-5.47c0-1.69-1.08-2.66-3.31-2.66a8.08,8.08,0,0,0-3.06.56v7.57h1.61v-6.6a4.19,4.19,0,0,1,1.46-.24c1.11,0,1.67.58,1.67,1.51v5.32Zm16.15,0v-5.56a2.48,2.48,0,0,0-2.76-2.57,4.22,4.22,0,0,0-2.65.86,3.5,3.5,0,0,0-2.54-.86,7.62,7.62,0,0,0-2.87.56v7.57h1.61v-6.6a3.52,3.52,0,0,1,1.36-.24c1,0,1.63.49,1.63,1.29v5.55h1.63V155a2,2,0,0,1,1.47-.53,1.37,1.37,0,0,1,1.52,1.43v5.4Zm7.66-.4v-5c0-2-1.15-2.71-3.06-2.71a7.45,7.45,0,0,0-2.78.56l.41,1.11a5.82,5.82,0,0,1,2.2-.49c1,0,1.69.36,1.69,1.36v.5c-2.41.13-4.78.53-4.78,2.75,0,1.57,1.15,2.5,3.45,2.5a6.93,6.93,0,0,0,2.87-.56Zm-1.54-.81a4.08,4.08,0,0,1-1.38.21c-1.23,0-1.88-.52-1.88-1.36,0-1.42,1.63-1.55,3.26-1.64v2.8Zm9.64,1.21v-5.47c0-1.69-1.08-2.66-3.31-2.66a8.08,8.08,0,0,0-3.06.56v7.57h1.61v-6.6a4.19,4.19,0,0,1,1.47-.24c1.11,0,1.67.58,1.67,1.51v5.32Zm7.66-.4v-5c0-2-1.15-2.71-3.06-2.71a7.45,7.45,0,0,0-2.78.56l.41,1.11a5.82,5.82,0,0,1,2.2-.49c1,0,1.69.36,1.69,1.36v.5c-2.41.13-4.78.53-4.78,2.75,0,1.57,1.15,2.5,3.45,2.5a6.93,6.93,0,0,0,2.87-.56Zm-1.54-.81a4.08,4.08,0,0,1-1.38.21c-1.23,0-1.88-.52-1.88-1.36,0-1.42,1.63-1.55,3.26-1.64v2.8Zm9.6,1.18v-7.54a6.13,6.13,0,0,0-2.66-.56c-2.35,0-4,1.28-4,4,0,2.41,1.4,3.8,3.42,3.8a4.18,4.18,0,0,0,1.61-.32v.59a1.75,1.75,0,0,1-2,2,5,5,0,0,1-2.22-.5l-.47,1.27a6.64,6.64,0,0,0,2.84.61,3.08,3.08,0,0,0,3.4-3.36Zm-1.6-1.79a3.13,3.13,0,0,1-1.3.28c-1.26,0-2.1-.87-2.1-2.62,0-1.92,1-2.72,2.22-2.72a3.34,3.34,0,0,1,1.18.21v4.85Zm9.92-2.81c0-2.15-1.23-3.5-3.3-3.5-2.23,0-3.59,1.7-3.59,4.14s1.4,4.16,3.92,4.16a6.51,6.51,0,0,0,2.78-.56l-.47-1.21a5,5,0,0,1-2.2.49,2.25,2.25,0,0,1-2.44-2.16l5.3-.74c0-.21,0-.41,0-.61Zm-1.55-.25-3.86.53c0-1.66.84-2.6,2.09-2.6,1.07,0,1.76.68,1.78,2.07Zm9.32,4.48V149.73h-1.62v3.76a4.67,4.67,0,0,0-1.29-.19c-2.41,0-3.71,1.68-3.71,4.13s1.4,4.08,3.89,4.08a6.32,6.32,0,0,0,2.74-.56Zm-1.62-.93a3.07,3.07,0,0,1-1.14.21c-1.45,0-2.23-1.05-2.23-2.8s.77-2.89,2.23-2.89a3.6,3.6,0,0,1,1.14.18V160Zm13.32,1.33v-5.43c0-1.73-1.11-2.68-3-2.68a4.32,4.32,0,0,0-1.79.43v-3.93h-1.61v11.61H262v-6.45a3,3,0,0,1,1.42-.37c1.07,0,1.72.5,1.72,1.52v5.3Zm8.45-4c0-2.37-1.24-4.14-3.5-4.14s-3.5,1.77-3.5,4.14,1.24,4.16,3.5,4.16,3.5-1.79,3.5-4.16Zm-1.63,0c0,1.72-.62,2.86-1.88,2.86s-1.88-1.14-1.88-2.86.62-2.84,1.88-2.84,1.88,1.12,1.88,2.84Zm8.18,1.81c0-1.55-1.23-2-2.34-2.43-.78-.3-1.38-.55-1.38-1.27s.47-1,1.32-1a3.57,3.57,0,0,1,1.64.47l.5-1.12a4.67,4.67,0,0,0-2.32-.56c-1.78,0-2.79.92-2.79,2.23,0,1.49,1.2,2,2.26,2.38.81.3,1.42.58,1.42,1.3s-.58,1.09-1.45,1.09a4.41,4.41,0,0,1-1.89-.52l-.55,1.24a5.71,5.71,0,0,0,2.48.56c2,0,3.09-.93,3.09-2.36Zm5.07,2.13v-1.35a1.51,1.51,0,0,1-.55.1.94.94,0,0,1-1.06-1v-4.44h1.61v-1.21h-1.61V151l-1.58.49v1.85h-1.08v1.21h1.08v4.53c0,1.55.78,2.34,2.19,2.34a2.73,2.73,0,0,0,1-.18ZM289.94,151a1,1,0,1,0-1,.92.94.94,0,0,0,1-.92Zm-.15,10.34v-8h-1.63v8Zm8.15,0v-5.47c0-1.69-1.08-2.66-3.31-2.66a8.08,8.08,0,0,0-3.06.56v7.57h1.61v-6.6a4.2,4.2,0,0,1,1.47-.24c1.11,0,1.67.58,1.67,1.51v5.32Zm8.06,0v-7.54a6.13,6.13,0,0,0-2.66-.56c-2.35,0-4,1.28-4,4,0,2.41,1.4,3.8,3.42,3.8a4.18,4.18,0,0,0,1.61-.32v.59a1.75,1.75,0,0,1-2,2,5,5,0,0,1-2.22-.5l-.47,1.27a6.64,6.64,0,0,0,2.84.61,3.08,3.08,0,0,0,3.4-3.36Zm-1.6-1.79a3.13,3.13,0,0,1-1.3.28c-1.26,0-2.1-.87-2.1-2.62,0-1.92,1-2.72,2.22-2.72a3.34,3.34,0,0,1,1.18.21v4.85Z"/></g></svg>