<?xml version="1.0" encoding="UTF-8"?>
<svg width="300px" height="250px" viewBox="0 0 300 250" version="1.1" xmlns="http://www.w3.org/2000/svg" xmlns:xlink="http://www.w3.org/1999/xlink">
    <!-- Generator: Sketch 42 (36781) - http://www.bohemiancoding.com/sketch -->
    <title>Artboard</title>
    <desc>Created with Sketch.</desc>
    <defs>
        <radialGradient cx="92.808165%" cy="7.09451932%" fx="92.808165%" fy="7.09451932%" r="100.766582%" id="radialGradient-1">
            <stop stop-color="#F4793B" offset="4.518%"></stop>
            <stop stop-color="#FFF33E" offset="100%"></stop>
        </radialGradient>
        <radialGradient cx="15.8537528%" cy="35.3672451%" fx="15.8537528%" fy="35.3672451%" r="84.1122779%" id="radialGradient-2">
            <stop stop-color="#EE3D85" offset="25.818%"></stop>
            <stop stop-color="#7B5AA6" offset="100%"></stop>
        </radialGradient>
        <linearGradient x1="19.5195343%" y1="77.1770881%" x2="68.2846474%" y2="28.067321%" id="linearGradient-3">
            <stop stop-color="#EE3D85" offset="0%"></stop>
            <stop stop-color="#F05872" offset="100%"></stop>
        </linearGradient>
        <radialGradient cx="11.7276028%" cy="13.2296328%" fx="11.7276028%" fy="13.2296328%" r="110.096633%" id="radialGradient-4">
            <stop stop-color="#F05872" offset="13.43%"></stop>
            <stop stop-color="#F4793B" offset="100%"></stop>
        </radialGradient>
    </defs>
    <g id="Page-1" stroke="none" stroke-width="1" fill="none" fill-rule="evenodd">
        <g id="Artboard" fill-rule="nonzero">
            <g id="jetbrains" transform="translate(91.000000, 62.000000)">
                <g id="Group">
                    <g id="Shape">
                        <path d="M116.734456,70.4065315 C118.743868,69.0639384 119.346899,66.4120214 118.111138,64.3523632 C116.875378,62.292705 114.227355,61.5362051 112.06586,62.625319 L27.2442042,108.472077 C24.0402356,110.312704 22.128046,113.745864 22.2723143,117.398644 C22.4165826,121.051425 24.5937621,124.32764 27.9332052,125.917141 C31.2726484,127.506642 35.2293094,127.149999 38.2209314,124.989832 L116.734456,70.4065315 Z" fill="url(#radialGradient-1)" opacity="0.99688"></path>
                        <path d="M17.970072,28.1301122 C14.6124651,25.476196 9.99757706,24.9843989 6.14216593,26.8696417 C2.2867548,28.7548845 -0.108271146,32.6744327 0.00374135533,36.9153998 C0.115753857,41.1563668 2.71444109,44.9477508 6.66414752,46.6326744 L52.104445,65.1323475 C54.0273276,65.9729647 56.2847637,65.302161 57.4159977,63.5540043 C58.5472317,61.8058475 58.2126418,59.5051734 56.6287365,58.1407163 L17.970072,28.1301122 Z" fill="url(#radialGradient-2)"></path>
                        <path d="M51.3390587,0.392226412 C48.8870427,-0.363164598 46.2218865,-0.0142905217 44.0548425,1.34574435 L4.62133058,27.7261456 C1.31951606,30.065866 -0.412751852,34.0035229 0.111026223,37.9786192 C0.634804298,41.9537154 3.33006511,45.3244772 7.12867429,46.7550685 C10.9272835,48.1856597 15.2159607,47.4451135 18.2950993,44.8269089 L54.2436323,15.3122349 C56.7472437,13.3115002 57.9308605,10.1150219 57.3234441,6.99488817 C56.7160277,3.87475442 54.4161406,1.33725472 51.3390587,0.392226412 L51.3390587,0.392226412 Z" fill="url(#linearGradient-3)" opacity="0.99891"></path>
                        <path d="M54.8880911,2.49426061 C52.6279994,0.28891065 49.3311246,-0.532339063 46.2795398,0.349875174 C43.227955,1.23208941 40.9032645,3.67853564 40.2094829,6.73785142 C39.5157013,9.7971672 40.562322,12.9865282 42.94234,15.0656707 L111.393402,70.2313878 C113.262075,71.670021 115.935032,71.4677399 117.559041,69.7647912 C119.183051,68.0618425 119.222867,65.4194891 117.650884,63.6697437 L54.8880911,2.49426061 Z" fill="url(#radialGradient-4)" opacity="0.99688"></path>
                    </g>
                    <rect id="Rectangle-path" fill="#000000" x="36.2953737" y="35.105815" width="50.4058626" height="49.688052"></rect>
                    <rect id="Rectangle-path" fill="#FFFFFF" x="40.6431912" y="75.4773409" width="18.902196" height="3.1055087"></rect>
                    <g transform="translate(40.322314, 40.717557)" fill="#FFFFFF">
                        <path d="M2.99555455,8.83667939 C3.82823561,8.87308626 4.6406272,8.57694839 5.24894248,8.01526084 C5.8299161,7.40033385 6.1235439,6.57392692 6.05876207,5.7360471 L6.05876207,0.599265496 L3.79366099,0.599265496 L3.79366099,5.72452015 C3.85118039,6.00054661 3.78058,6.28747027 3.60116236,6.50684471 C3.42174472,6.72621915 3.15227756,6.855097 2.86643463,6.85824237 C2.33937116,6.82391165 1.86018928,6.54481983 1.57539281,6.10629573 L0.108408017,7.47149725 C0.7741865,8.37913216 1.86074967,8.89291163 2.99555455,8.83667939 L2.99555455,8.83667939 Z" id="Shape"></path>
                        <polygon id="Shape" points="13.2532562 6.78916794 8.84042149 6.78916794 8.84042149 5.50462595 12.783157 5.50462595 12.783157 3.73438168 8.84042149 3.73438168 8.84042149 2.49637405 13.1942479 2.49637405 13.1942479 0.599129771 6.58630579 0.599129771 6.58630579 8.6980458 13.2532562 8.6980458"></polygon>
                        <polygon id="Shape" points="16.1712149 8.6980458 18.4479504 8.6980458 18.4479504 2.56617557 20.9125289 2.56617557 20.9125289 0.599129771 13.7174545 0.599129771 13.7174545 2.56617557 16.1712149 2.56617557"></polygon>
                        <path d="M6.0352276,14.4548589 C6.808284,14.1855657 7.31918464,13.4581408 7.3028038,12.6500725 L7.3028038,12.6269314 C7.31456781,12.1350423 7.12409499,11.6593583 6.77467983,11.3080024 C6.15362962,10.7850765 5.34714926,10.5270105 4.5329362,10.5906657 L0.319628099,10.5906657 L0.319628099,18.6892327 L4.55642149,18.6892327 C6.51640066,18.6892327 7.66656025,17.8446827 7.66656025,16.4563982 L7.66656025,16.4331989 C7.68933049,15.4683532 6.99802182,14.6299934 6.0352276,14.4548589 L6.0352276,14.4548589 Z M2.53779793,12.3955102 L4.0283762,12.3955102 C4.69737256,12.3955102 5.06112901,12.638468 5.06112901,13.0897058 L5.06112901,13.1127791 C5.06112901,13.587158 4.66207579,13.8185501 3.96967281,13.8185501 L2.5377881,13.8185501 L2.5377881,12.3955102 L2.53779793,12.3955102 Z M5.3897657,16.1439685 C5.3897657,16.6182893 5.00241579,16.8843785 4.2983095,16.8843785 L2.53779793,16.8843785 L2.53779793,15.391954 L4.27484388,15.391954 C5.0377224,15.391954 5.38977554,15.6812426 5.38977554,16.1208274 L5.38977554,16.1439589 L5.3897657,16.1439685 Z" id="Shape"></path>
                        <path d="M17.9590276,10.5328565 L14.88928,17.7158602 L13.6051421,15.866333 C14.6558389,15.4792811 15.3368454,14.4722677 15.2951192,13.3673414 L15.2951192,13.3442099 C15.3285185,12.6433166 15.0649584,11.9602593 14.5674784,11.458415 C13.8299851,10.826585 12.8656079,10.5138487 11.8916208,10.5906657 L8.00679207,10.5906657 L8.00679207,18.6892327 L10.2836456,18.6892327 L10.2836456,16.2366107 L11.2930508,16.2366107 L12.9478589,18.6892715 L16.8558091,18.6892715 L17.4426856,17.231583 L20.6232311,17.231583 L21.2100486,18.6892715 L23.6513188,18.6892715 L20.1537712,10.5328565 L17.9590276,10.5328565 Z M13.0182656,13.5177637 C13.006575,13.8130943 12.8651556,14.0888098 12.6308069,14.2731648 C12.3964582,14.4575197 12.0923554,14.532283 11.7976305,14.478 L10.2836456,14.478 L10.2836456,12.5227914 L11.7859174,12.5227914 C12.0846851,12.4620617 12.3953707,12.5356126 12.6335774,12.7234641 C12.8717841,12.9113157 13.012777,13.1939618 13.0182558,13.4946225 L13.0182558,13.517754 L13.0182656,13.5177637 Z M18.1116623,15.4845671 L19.0388297,13.1937973 L19.9542937,15.4845671 L18.1116033,15.4845671 L18.1116623,15.4845671 Z" id="Shape"></path>
                        <rect id="Rectangle-path" x="23.9209079" y="10.5906657" width="2.27685355" height="8.09856702"></rect>
                        <polygon id="Shape" points="32.265719 14.8716031 28.8855289 10.5904427 26.7612314 10.5904427 26.7612314 18.6893588 29.0143636 18.6893588 29.0143636 14.2462977 32.5351901 18.6893588 34.5188512 18.6893588 34.5188512 10.5904427 32.265719 10.5904427"></polygon>
                        <path d="M38.7809592,13.6450351 C37.6307996,13.3905407 37.3490941,13.2285236 37.3490941,12.8582944 L37.3490941,12.8351629 C37.3490941,12.5343377 37.6190963,12.3145598 38.170676,12.3145598 C39.0026637,12.3402369 39.8062095,12.6190619 40.471064,13.1127791 L41.6094613,11.5278094 C40.6469977,10.7869681 39.4496154,10.4057987 38.2293794,10.4518092 C36.2576379,10.4518092 35.0487651,11.5393848 35.0487651,13.043346 L35.0487651,13.0665453 C35.0487651,14.720919 36.3984612,15.2068927 38.1472596,15.600205 C39.2738945,15.8663039 39.5437885,16.0398479 39.5437885,16.3869457 L39.5437885,16.410019 C39.5437885,16.757175 39.215142,16.9654065 38.5931555,16.9654065 C37.6183818,16.9518001 36.6778907,16.6087363 35.9289324,15.9935753 L34.6614545,17.4860386 C35.7353445,18.3817548 37.1046259,18.8591277 38.5110062,18.8281087 C40.5062231,18.8281087 41.8325027,17.8447409 41.8325027,16.1902993 L41.8325027,16.1671679 C41.8325126,14.6515344 40.6587595,14.0499518 38.7809592,13.6450351 Z" id="Shape"></path>
                    </g>
                </g>
            </g>
        </g>
    </g>
</svg>