<svg xmlns="http://www.w3.org/2000/svg" viewBox="0 0 320 250"><defs><style>.cls-1{fill:#ec670f;}</style></defs><title>packt</title><g id="Layer_5" data-name="Layer 5"><path class="cls-1" d="M99.62,148.49H94V113.6h13.52c8,0,12.36,4.06,12.36,10.6s-4.31,10.6-12.36,10.6h-7.9v13.69Zm0-19h7.75c4.58,0,6.66-1.66,6.66-5.27s-2.06-5.3-6.66-5.3H99.62v10.57Z"/><path class="cls-1" d="M139.58,148.49v-2.87a9,9,0,0,1-7.5,3.49c-6.69,0-11.93-5.25-11.93-12.55S125.4,124,132.08,124a9.06,9.06,0,0,1,7.5,3.52v-2.9h5.2v23.87Zm-14.09-11.93c0,4.18,2.72,7.65,7.21,7.65,4.28,0,7.21-3.29,7.21-7.65s-2.92-7.65-7.21-7.65c-4.48,0-7.21,3.47-7.21,7.65Z"/><path class="cls-1" d="M169,127.79l-3.34,3.57a8,8,0,0,0-5.72-2.48c-4,0-7.06,3.14-7.06,7.65s3,7.65,7.06,7.65a8.55,8.55,0,0,0,5.84-2.5l3.22,3.59a11.46,11.46,0,0,1-8.91,3.81c-7.58,0-12.55-5.4-12.55-12.55s5-12.55,12.55-12.55a11.4,11.4,0,0,1,8.91,3.81Z"/><polyline class="cls-1" points="176.3 138.41 176.3 148.49 171.08 148.49 171.08 112.61 176.3 112.49 176.3 133.56"/><polygon class="cls-1" points="199.97 148.49 199.97 129.35 195.22 129.35 195.22 124.62 199.97 124.62 199.97 117.39 205.2 117.39 205.2 124.62 209.97 124.62 209.97 129.35 205.2 129.35 205.2 148.49 199.97 148.49"/><polygon class="cls-1" points="177.29 135.86 179.22 133.68 187.1 124.62 193.66 124.62 183.66 135.84 193.76 148.49 187.15 148.49 179.2 138.41 177.29 135.86"/><polygon class="cls-1" points="226.09 138.41 218.15 148.49 211.53 148.49 221.64 135.84 211.63 124.62 218.19 124.62 226.07 133.68 228 135.86 226.09 138.41"/><polygon class="cls-1" points="228 156.12 94 156.12 94 152.65 228 152.65 228 156.12"/></g></svg>