<svg id="Layer_3" data-name="Layer 3" xmlns="http://www.w3.org/2000/svg" viewBox="0 0 320 250"><defs><style>.cls-1{fill:#00adee;}.cls-2{fill:#8ed7f7;}</style></defs><title>thunder</title><path class="cls-1" d="M43.25,156.93q1.55.23,3.06.31t2.83.08q1.32,0,2.71-.12t2.79-.27v-46.1H68.5a24.84,24.84,0,0,0,.47-4.88,24,24,0,0,0-.47-4.73H29.38a24.05,24.05,0,0,0-.46,4.73,24.85,24.85,0,0,0,.46,4.88H43.25v46.1ZM72,157a25.71,25.71,0,0,0,2.75.31q1.35.08,2.67.08t2.71-.08a25.71,25.71,0,0,0,2.79-.31V135.93a15.63,15.63,0,0,1,.74-5.27,8.49,8.49,0,0,1,1.86-3.14A5.7,5.7,0,0,1,88.06,126a10.13,10.13,0,0,1,2.71-.39,4.78,4.78,0,0,1,4.49,2.25,12.86,12.86,0,0,1,1.32,6.43V157a25.69,25.69,0,0,0,2.79.31q1.39.08,2.71.08t2.71-.08a25.72,25.72,0,0,0,2.79-.31V131.36q0-8-3.45-11.7T94,115.94a13.47,13.47,0,0,0-4.26.62,13,13,0,0,0-3.18,1.51,12.47,12.47,0,0,0-2.21,1.86q-.89,1-1.43,1.67V101a25.71,25.71,0,0,0-2.79-.31q-1.39-.08-2.71-.08t-2.71.08A23,23,0,0,0,72,101v56Zm136.84-40.29a15.23,15.23,0,0,0-2.91-.5q-1.51-.12-2.91-.12a20.8,20.8,0,0,0-8.45,1.67,19.38,19.38,0,0,0-6.47,4.53,19.81,19.81,0,0,0-4.11,6.78,26.3,26.3,0,0,0,.23,17.78,16.88,16.88,0,0,0,4.53,6.31,18.06,18.06,0,0,0,6.63,3.56,27.32,27.32,0,0,0,7.86,1.12,60.69,60.69,0,0,0,9.1-.58,55.6,55.6,0,0,0,7.4-1.67V100.29A25.69,25.69,0,0,0,217,100q-1.39-.08-2.71-.08t-2.67.08a25.71,25.71,0,0,0-2.75.31v16.43Zm0,31.46a13.75,13.75,0,0,1-2.4.5,22.6,22.6,0,0,1-2.4.12,13.45,13.45,0,0,1-4-.58,7.93,7.93,0,0,1-3.22-1.9,8.92,8.92,0,0,1-2.13-3.53,16.36,16.36,0,0,1-.77-5.38,20.54,20.54,0,0,1,.58-4.92,11.92,11.92,0,0,1,1.82-4.11,9.3,9.3,0,0,1,3.14-2.79,9.09,9.09,0,0,1,4.46-1,21.18,21.18,0,0,1,2.44.12,21.63,21.63,0,0,1,2.52.5v23Zm51.89-7.9q.15-.85.27-2.29t.12-2.91a24,24,0,0,0-1.16-7.55,17,17,0,0,0-3.45-6.08,16.4,16.4,0,0,0-5.54-4,17.88,17.88,0,0,0-7.44-1.47,19.85,19.85,0,0,0-8.41,1.67,17.42,17.42,0,0,0-6,4.53,19.36,19.36,0,0,0-3.68,6.74,27,27,0,0,0-1.24,8.29,27.34,27.34,0,0,0,1.2,8.29A17.24,17.24,0,0,0,229.1,152a17,17,0,0,0,6.51,4.3c2.66,1,7.36,1.55,11.08,1.55a29.87,29.87,0,0,0,12.13-2.32,19.08,19.08,0,0,0-.7-4.65,18.09,18.09,0,0,0-1.47-3.72,30.52,30.52,0,0,1-5.23,1.43,29.79,29.79,0,0,1-5.38.5,13.1,13.1,0,0,1-7.75-2.09q-2.95-2.09-3.25-6.74Zm-25.65-7.67a10.18,10.18,0,0,1,2.4-6.12,7.65,7.65,0,0,1,5.89-2.17,6.52,6.52,0,0,1,5.31,2.29,9.77,9.77,0,0,1,2.05,6ZM266.83,157q1.47.23,2.83.31t2.67.08q1.32,0,2.71-.08a25.69,25.69,0,0,0,2.79-.31V137.95a17.43,17.43,0,0,1,1-6.51,8.47,8.47,0,0,1,2.44-3.49,6.78,6.78,0,0,1,3.1-1.43,18.08,18.08,0,0,1,2.94-.27h1.28a10.7,10.7,0,0,1,1.9.16,20.72,20.72,0,0,0,.43-2.94q.12-1.55.12-2.87,0-1.08-.08-2.09a15.31,15.31,0,0,0-.23-1.78,6.74,6.74,0,0,0-1.47-.23q-1-.08-1.78-.08a9.9,9.9,0,0,0-6.2,1.9,20,20,0,0,0-4.18,4.3l-.19-1.36q-.12-.81-.27-1.63t-.35-1.55a4.48,4.48,0,0,0-.43-1.12q-1.09-.23-2.21-.39a16.79,16.79,0,0,0-2.29-.16,20.83,20.83,0,0,0-2.29.12q-1,.12-2.21.35V157Z"/><path class="cls-2" d="M159.2,158.79c-10.95,0-16.22-6.53-17.3-9.11a25.39,25.39,0,0,1-1.61-9h0v-1c0-.07,0-.14,0-.22v-3.71a22.16,22.16,0,0,0-.5-5.06,7.64,7.64,0,0,0-1.55-3.25,5.7,5.7,0,0,0-2.59-1.7,13.42,13.42,0,0,0-7.28,0,5.7,5.7,0,0,0-2.59,1.7,7.64,7.64,0,0,0-1.55,3.25,22.45,22.45,0,0,0-.5,5.23v21.21h-.18c-1.79,0-3.48-4.45-5.23-4.45s-3.73-12.22-5.59-12.53v-4.56a27,27,0,0,1,1.63-10.3c1.08-2.58,5.56-4.54,7.39-5.88s3.66-3.22,10.61-3.22c10.95,0,16.22,6.53,17.3,9.11a25.38,25.38,0,0,1,1.61,9h0v1c0,.07,0,.14,0,.22v3.71a22.16,22.16,0,0,0,.5,5.06,7.64,7.64,0,0,0,1.55,3.25,5.7,5.7,0,0,0,2.59,1.7,13.42,13.42,0,0,0,7.28,0,5.7,5.7,0,0,0,2.59-1.7,7.64,7.64,0,0,0,1.55-3.25,22.45,22.45,0,0,0,.5-5.23V117.86H168c1.79,0,3.48,4.45,5.23,4.45s3.73,12.22,5.59,12.53v4.56a27,27,0,0,1-1.63,10.3c-1.08,2.58-5.56,4.54-7.39,5.88s-3.66,3.22-10.61,3.22"/><path class="cls-1" d="M178.83,156.92V135.39a27,27,0,0,0-1.63-10.3,13.58,13.58,0,0,0-4.37-5.88,14.83,14.83,0,0,0-6.39-2.63,40.41,40.41,0,0,0-13.78,0,14.83,14.83,0,0,0-6.39,2.63,13.58,13.58,0,0,0-4.37,5.88,27,27,0,0,0-1.63,10.3v4a22.16,22.16,0,0,1-.5,5.06,7.64,7.64,0,0,1-1.55,3.25,5.7,5.7,0,0,1-2.59,1.7,13.42,13.42,0,0,1-7.28,0,5.7,5.7,0,0,1-2.59-1.7,7.64,7.64,0,0,1-1.55-3.25,22.44,22.44,0,0,1-.5-5.23V118a32.76,32.76,0,0,0-11,0v21.52a27,27,0,0,0,1.63,10.3,13.58,13.58,0,0,0,4.37,5.88,14.84,14.84,0,0,0,6.39,2.63,40.45,40.45,0,0,0,13.78,0,14.84,14.84,0,0,0,6.39-2.63,13.58,13.58,0,0,0,4.37-5.88,25.73,25.73,0,0,0,1.61-9.28h0v-.8c0-.07,0-.14,0-.22h0V135.7a22.45,22.45,0,0,1,.5-5.23,7.64,7.64,0,0,1,1.55-3.25,5.7,5.7,0,0,1,2.59-1.7,13.4,13.4,0,0,1,7.28,0,5.7,5.7,0,0,1,2.59,1.7,7.64,7.64,0,0,1,1.55,3.25,22.45,22.45,0,0,1,.5,5.23v21.21a32.76,32.76,0,0,0,11,0Z"/></svg>